# xmcd
#
# Track frame offsets:
#	150
#	32822
#	55917
#	82707
#	99550
#	128825
#	162127
#	179980
#	211732
#	239700
#
# Disc length: 3484
#
# Revision: 3
# Processed by: cddbd v1.5.1PL0 Copyright (c) Steve Scherf et al.
# Submitted via: DiscPlay 4.0.4
# Normalized: r1:DSETVAR1,TDELIM( - ),TSWAP
#
DISCID=840d9a0a
DTITLE=Various Artist - Jazz and Blues Vol. 3
DYEAR=1900
DGENRE=
TTITLE0=Milt Hilton - A Child Is Born
TTITLE1=Valerie Capers - One Note Samba
TTITLE2=Lou Donaldson - Messin  Around With C.P.
TTITLE3=Maynard Ferguson - I Can t Get Started
TTITLE4=Wynton Marsalis - Skain s Domain
TTITLE5=Charles Mingus - Better Get It In Your Soul
TTITLE6=Grover Washington Jr. - I Miss Home
TTITLE7=Ellis Marsalis - Never Let Me Go
TTITLE8=J.J. Johnson - What Is This Thing Called Love
TTITLE9=Charlie Parker - Lester Leaps In
EXTD=
EXTT0=
EXTT1=
EXTT2=
EXTT3=
EXTT4=
EXTT5=
EXTT6=
EXTT7=
EXTT8=
EXTT9=
PLAYORDER=
